<svg id="Group_1" data-name="Group 1" xmlns="http://www.w3.org/2000/svg" width="94.424" height="33.869" viewBox="0 0 94.424 33.869">
  <path id="Path_1" data-name="Path 1" d="M0,25.6H.456l1.254,3.649L2.965,25.6h.114l1.254,3.649L5.588,25.6h.456l-1.6,4.676H4.219L3.079,26.74,1.825,30.276H1.6Z" transform="translate(0 3.594)" fill="#58595b"/>
  <path id="Path_2" data-name="Path 2" d="M5.9,30.276V25.6h.456v2.281H8.865V25.6h.456v4.676H8.865V28.337H6.356v1.939Z" transform="translate(0.828 3.594)" fill="#58595b"/>
  <path id="Path_3" data-name="Path 3" d="M9.7,30.276V25.6h2.395v.456H10.156v1.825h1.939v.456H10.156v1.482h1.939v.456Z" transform="translate(1.362 3.594)" fill="#58595b"/>
  <path id="Path_4" data-name="Path 4" d="M12.6,30.276V25.6h.114l2.737,3.535V25.6h.456v4.676h-.228l-2.737-3.421v3.421Z" transform="translate(1.769 3.594)" fill="#58595b"/>
  <rect id="Rectangle_1" data-name="Rectangle 1" width="0.456" height="4.562" transform="translate(20.869 29.194)" fill="#58595b"/>
  <path id="Path_5" data-name="Path 5" d="M19.5,30.262V25.7h1.368a2.725,2.725,0,0,1,1.6.57,2.071,2.071,0,0,1,.684,1.6,2.8,2.8,0,0,1-.57,1.711,1.839,1.839,0,0,1-1.483.684Zm.456-.456h.912a1.815,1.815,0,0,0,1.14-.57,1.889,1.889,0,0,0,.57-1.368,1.558,1.558,0,0,0-.456-1.254,1.584,1.584,0,0,0-1.14-.57H20.07v3.763Z" transform="translate(2.738 3.608)" fill="#58595b"/>
  <path id="Path_6" data-name="Path 6" d="M23.2,30.276V25.6h2.395v.456H23.656v1.825h1.939v.456H23.656v1.482h1.939v.456Z" transform="translate(3.257 3.594)" fill="#58595b"/>
  <path id="Path_7" data-name="Path 7" d="M25.9,30.29l2.053-4.79h.114l2.053,4.79h-.456l-.8-1.939H27.154l-.8,1.825H25.9ZM27.953,26.3l-.684,1.6h1.368Z" transform="translate(3.636 3.58)" fill="#58595b"/>
  <path id="Path_8" data-name="Path 8" d="M30,29.363l.342-.228a1.574,1.574,0,0,1,.342.456c.228.114.342.228.57.228a1.621,1.621,0,0,0,.684-.228.627.627,0,0,0,.342-.57.825.825,0,0,0-.456-.684c-.342-.228-.57-.456-1.026-.8a1.163,1.163,0,0,1-.57-.912,1.035,1.035,0,0,1,.342-.8,1.086,1.086,0,0,1,.8-.228,1.446,1.446,0,0,1,.684.114,1.574,1.574,0,0,1,.456.342l-.342.228c-.114-.114-.228-.228-.342-.228s-.342-.114-.456-.114c-.228,0-.342,0-.456.114a.592.592,0,0,0-.228.456c0,.228.114.342.456.57a6.267,6.267,0,0,1,1.026.8,1.576,1.576,0,0,1,.57,1.026,1.291,1.291,0,0,1-2.167.912,1.234,1.234,0,0,1-.57-.456" transform="translate(4.212 3.594)" fill="#58595b"/>
  <path id="Path_9" data-name="Path 9" d="M35.1,30.276V25.6h.228l1.711,2.965,1.6-2.965h.228v4.676h-.456V26.968l-1.368,2.395h-.114l-1.368-2.395v3.307Z" transform="translate(4.928 3.594)" fill="#58595b"/>
  <path id="Path_10" data-name="Path 10" d="M39.2,30.276V25.6h2.395v.456H39.656v1.825h1.939v.456H39.656v1.482h1.939v.456Z" transform="translate(5.503 3.594)" fill="#58595b"/>
  <path id="Path_11" data-name="Path 11" d="M42.1,30.276V25.6h2.281v.456H42.442v1.825h1.939v.456H42.442v1.482h1.939v.456Z" transform="translate(5.91 3.594)" fill="#58595b"/>
  <path id="Path_12" data-name="Path 12" d="M46.054,30.276V26.056H44.8V25.6h3.079v.456H46.511v4.219Z" transform="translate(6.289 3.594)" fill="#58595b"/>
  <rect id="Rectangle_2" data-name="Rectangle 2" width="0.456" height="4.562" transform="translate(57.247 29.194)" fill="#58595b"/>
  <path id="Path_13" data-name="Path 13" d="M51.3,30.276V25.6h.228l2.737,3.535V25.6h.456v4.676h-.342l-2.623-3.421v3.421Z" transform="translate(7.202 3.594)" fill="#58595b"/>
  <path id="Path_14" data-name="Path 14" d="M55.1,30.276V25.6h.114l2.737,3.535V25.6h.456v4.676h-.228l-2.623-3.421v3.421Z" transform="translate(7.735 3.594)" fill="#58595b"/>
  <path id="Path_15" data-name="Path 15" d="M63.262,27.881a2.071,2.071,0,0,1-.684,1.6,2.252,2.252,0,0,1-1.6.684,2.071,2.071,0,0,1-1.6-.684,2.252,2.252,0,0,1-.684-1.6,2.071,2.071,0,0,1,.684-1.6,2.252,2.252,0,0,1,1.6-.684,2.071,2.071,0,0,1,1.6.684,2.252,2.252,0,0,1,.684,1.6m-.456,0a1.962,1.962,0,1,0-.57,1.254,1.471,1.471,0,0,0,.57-1.254" transform="translate(8.241 3.594)" fill="#58595b"/>
  <path id="Path_16" data-name="Path 16" d="M63.2,25.6h.456l1.254,3.649L66.165,25.6h.456l-1.6,4.676h-.342Z" transform="translate(8.872 3.594)" fill="#58595b"/>
  <path id="Path_17" data-name="Path 17" d="M66.6,30.29l2.053-4.79h.114l2.053,4.79h-.456l-.8-1.939H67.854l-.8,1.939ZM68.767,26.3l-.684,1.6h1.254Z" transform="translate(9.35 3.58)" fill="#58595b"/>
  <path id="Path_18" data-name="Path 18" d="M72.068,30.276V26.056H70.7V25.6h3.193v.456H72.525v4.219Z" transform="translate(9.925 3.594)" fill="#58595b"/>
  <rect id="Rectangle_3" data-name="Rectangle 3" width="0.456" height="4.562" transform="translate(84.503 29.194)" fill="#58595b"/>
  <path id="Path_19" data-name="Path 19" d="M79.762,27.881a2.071,2.071,0,0,1-.684,1.6,2.252,2.252,0,0,1-1.6.684,2.071,2.071,0,0,1-1.6-.684,2.251,2.251,0,0,1-.684-1.6,2.071,2.071,0,0,1,.684-1.6,2.252,2.252,0,0,1,1.6-.684,2.071,2.071,0,0,1,1.6.684,2.252,2.252,0,0,1,.684,1.6m-.456,0a1.962,1.962,0,1,0-.57,1.254,1.471,1.471,0,0,0,.57-1.254" transform="translate(10.557 3.594)" fill="#58595b"/>
  <path id="Path_20" data-name="Path 20" d="M79.8,30.276V25.6h.228l2.623,3.535V25.6h.57v4.676h-.342l-2.623-3.421v3.421Z" transform="translate(11.203 3.594)" fill="#58595b"/>
  <rect id="Rectangle_4" data-name="Rectangle 4" width="3.535" height="22.352" fill="#58595b"/>
  <path id="Path_21" data-name="Path 21" d="M6.9,22.352V0h6.5a10.6,10.6,0,0,1,7.527,2.965,10.138,10.138,0,0,1,3.079,7.641,12.421,12.421,0,0,1-2.851,8.211,9.182,9.182,0,0,1-7.184,3.535Zm3.535-3.535h3.193A6.757,6.757,0,0,0,18.19,16.65a7.563,7.563,0,0,0,2.281-5.588A7.133,7.133,0,0,0,18.19,5.588a6.909,6.909,0,0,0-4.676-2.053H10.435Z" transform="translate(0.969)" fill="#58595b"/>
  <path id="Path_22" data-name="Path 22" d="M24.9,22.352V0H36.418V3.535h-8.1V9.351h7.527v3.535H28.321v5.93h8.1v3.535Z" transform="translate(3.496)" fill="#58595b"/>
  <path id="Path_23" data-name="Path 23" d="M58.6,22.352V0h3.535V18.816h9.009v3.535Z" transform="translate(8.227)" fill="#58595b"/>
  <path id="Path_24" data-name="Path 24" d="M72.7,22.352V0H84.218V3.535h-8.1V9.351h7.527v3.535H76.121v5.93h8.1v3.535Z" transform="translate(10.206)" fill="#58595b"/>
  <path id="Path_25" data-name="Path 25" d="M48.506.2l5.36,10.492,5.246,10.492H37.9l5.246-10.492Z" transform="translate(5.321 0.028)" fill="#26a9e0"/>
  <path id="Path_26" data-name="Path 26" d="M59.111,18.981c0,1.254-4.79,2.281-10.606,2.281-5.93,0-10.606-1.026-10.606-2.281S42.69,16.7,48.506,16.7s10.606,1.026,10.606,2.281" transform="translate(5.321 2.344)" fill="#58595b"/>
  <path id="Path_27" data-name="Path 27" d="M51.3,18.9c0,.456-.57.8-1.254.8h-4.79c-.684,0-1.254-.342-1.254-.8V12.4c0-.456.57-.8,1.254-.8h4.79c.684,0,1.254.342,1.254.8Z" transform="translate(6.177 1.628)" fill="#f1f1f2"/>
  <path id="Path_28" data-name="Path 28" d="M51.3,18.9c0,.456-.57.8-1.254.8h-4.79c-.684,0-1.254-.342-1.254-.8V12.4c0-.456.57-.8,1.254-.8h4.79c.684,0,1.254.342,1.254.8Z" transform="translate(6.177 1.628)" fill="#f1f1f2"/>
  <rect id="Rectangle_5" data-name="Rectangle 5" width="94.31" height="0.114" transform="translate(0 25.773)" fill="#58595b"/>
</svg>
